<svg id="Layer_1" data-name="Layer 1" xmlns="http://www.w3.org/2000/svg" viewBox="0 0 126.96 124.28"><defs><style>.cls-1{fill:#c3c3c3;}</style></defs><title>hand</title><path class="cls-1" d="M104.9,131.76H54.39c-.65-4-.91-8.06-2-11.82-.93-3.15-2.17-6.71-4.42-8.89-11.84-11.48-24-22.58-36.11-33.81-4.09-3.8-4.94-7.18-2.6-10.37s6.26-3.23,11,0C27.7,72,35.05,77.13,42.58,82c1.44.93,3.59.76,5.41,1.09.34-2,1.49-4.22.9-5.84-5.08-13.86-10.47-27.6-15.78-41.38-.42-1.08-1-2.1-1.42-3.19-1.49-3.93-1-7.24,3.14-9.24,3.49-1.7,6.82-.24,8.76,4,4.42,9.68,8.69,19.41,13,29.12.47,1.07.72,2.37,1.49,3.12,1.19,1.16,3.26,3,4,2.63a6.25,6.25,0,0,0,3.08-4.28,120.51,120.51,0,0,0,.15-12.47q0-14.74,0-29.49c0-5.94,2.08-8.67,6.5-8.64s6.31,2.82,6.66,8.74q1.17,20.19,2.57,40.37c.18,2.6,0,6.24,3.7,5.76,1.58-.21,3.54-3.51,4-5.67,1.82-9.46,3.14-19,4.66-28.54.2-1.31.45-2.62.72-3.92.84-4.13,3.49-6.12,7.55-5.42,3.89.67,5.4,3.55,5.12,7.37q-.78,10.71-1.59,21.41c-.31,4-.94,8-.86,11.94,0,1.81,1.44,3.59,2.22,5.38,1.64-.84,3.78-1.28,4.82-2.6,3.83-4.81,7.42-9.83,10.86-14.94,2.4-3.57,5.48-5.13,9.31-3.12,4,2.1,3.92,5.75,2.26,9.52-8.17,18.56-16.21,37.16-24.55,55.64-2.44,5.4-4.37,10.72-3.92,16.74A35.84,35.84,0,0,1,104.9,131.76Z" transform="translate(-7.96 -7.48)"/></svg>